<svg width="531" height="398" viewBox="0 0 531 398" fill="none" xmlns="http://www.w3.org/2000/svg">
<path d="M437.987 373.613C437.987 373.613 479.394 373.207 497.107 348.63C497.107 348.63 468.209 347.816 457.704 354.185C457.704 354.185 483.732 344.654 494.215 314.655C494.215 314.655 464.934 321.522 456.258 332.004C456.258 332.004 468.956 321.161 475.078 297.668C475.078 297.668 453.134 305.114 444.936 315.306L437.987 373.613Z" fill="#A7BD37"/>
<mask id="mask0_976_5336" style="mask-type:luminance" maskUnits="userSpaceOnUse" x="437" y="297" width="61" height="77">
<path d="M437.987 373.613C437.987 373.613 479.394 373.207 497.107 348.63C497.107 348.63 468.209 347.816 457.704 354.185C457.704 354.185 483.732 344.654 494.215 314.655C494.215 314.655 464.934 321.522 456.258 332.004C456.258 332.004 468.956 321.161 475.078 297.668C475.078 297.668 453.134 305.114 444.936 315.306L437.987 373.613Z" fill="white"/>
</mask>
<g mask="url(#mask0_976_5336)">
<path d="M458.099 303.074C458.099 303.074 449.989 366.45 455.527 374.558L430.013 376.536L443.858 303.074H458.099Z" fill="#3E5409"/>
</g>
<path d="M527.639 206.216C515.511 133.013 456.466 127.215 394.579 135.662C341.161 136.934 319.882 79.0365 285.241 48.1213C83.854 -104.082 -91.4107 247.263 137.902 327.351C243.039 347.028 542.149 371.453 527.639 206.216Z" fill="#E3EEFD"/>
<mask id="mask1_976_5336" style="mask-type:luminance" maskUnits="userSpaceOnUse" x="29" y="10" width="500" height="332">
<path d="M527.639 206.216C515.512 133.013 456.467 127.215 394.58 135.663C341.161 136.934 319.883 79.0367 285.241 48.1215C83.8545 -104.082 -91.4102 247.263 137.903 327.351C243.039 347.028 542.15 371.454 527.639 206.216Z" fill="white"/>
</mask>
<g mask="url(#mask1_976_5336)">
<path d="M49.2354 255.884V147.462H117.517V226.092H142.953V191.118H205.485V251.49H258.772V211.449H332.221V161.984H422.587V263.065H460.221V232.308H548.77V343.713H54.3709L49.2354 255.884Z" fill="#CCDFFE"/>
<mask id="mask2_976_5336" style="mask-type:luminance" maskUnits="userSpaceOnUse" x="49" y="147" width="500" height="197">
<path d="M49.2354 255.884V147.462H117.517V226.092H142.953V191.118H205.485V251.49H258.772V211.449H332.221V161.984H422.587V263.065H460.221V232.308H548.77V343.713H54.3709L49.2354 255.884Z" fill="white"/>
</mask>
<g mask="url(#mask2_976_5336)">
<path d="M108.813 154.49H98.1328V165.169H108.813V154.49Z" fill="#E3EEFD"/>
</g>
<mask id="mask3_976_5336" style="mask-type:luminance" maskUnits="userSpaceOnUse" x="49" y="147" width="500" height="197">
<path d="M49.2354 255.884V147.462H117.517V226.092H142.953V191.118H205.485V251.49H258.772V211.449H332.221V161.984H422.587V263.065H460.221V232.308H548.77V343.713H54.3709L49.2354 255.884Z" fill="white"/>
</mask>
<g mask="url(#mask3_976_5336)">
<path d="M108.813 171.062H98.1328V181.741H108.813V171.062Z" fill="#E3EEFD"/>
</g>
<mask id="mask4_976_5336" style="mask-type:luminance" maskUnits="userSpaceOnUse" x="49" y="147" width="500" height="197">
<path d="M49.2354 255.884V147.462H117.517V226.092H142.953V191.118H205.485V251.49H258.772V211.449H332.221V161.984H422.587V263.065H460.221V232.308H548.77V343.713H54.3709L49.2354 255.884Z" fill="white"/>
</mask>
<g mask="url(#mask4_976_5336)">
<path d="M108.813 187.634H98.1328V198.313H108.813V187.634Z" fill="#E3EEFD"/>
</g>
<mask id="mask5_976_5336" style="mask-type:luminance" maskUnits="userSpaceOnUse" x="49" y="147" width="500" height="197">
<path d="M49.2354 255.884V147.462H117.517V226.092H142.953V191.118H205.485V251.49H258.772V211.449H332.221V161.984H422.587V263.065H460.221V232.308H548.77V343.713H54.3709L49.2354 255.884Z" fill="white"/>
</mask>
<g mask="url(#mask5_976_5336)">
<path d="M108.813 204.206H98.1328V214.885H108.813V204.206Z" fill="#E3EEFD"/>
</g>
<mask id="mask6_976_5336" style="mask-type:luminance" maskUnits="userSpaceOnUse" x="49" y="147" width="500" height="197">
<path d="M49.2354 255.884V147.462H117.517V226.092H142.953V191.118H205.485V251.49H258.772V211.449H332.221V161.984H422.587V263.065H460.221V232.308H548.77V343.713H54.3709L49.2354 255.884Z" fill="white"/>
</mask>
<g mask="url(#mask6_976_5336)">
<path d="M157.646 195.785H148.473V203.886H157.646V195.785Z" fill="#E3EEFD"/>
</g>
<mask id="mask7_976_5336" style="mask-type:luminance" maskUnits="userSpaceOnUse" x="49" y="147" width="500" height="197">
<path d="M49.2354 255.884V147.462H117.517V226.092H142.953V191.118H205.485V251.49H258.772V211.449H332.221V161.984H422.587V263.065H460.221V232.308H548.77V343.713H54.3709L49.2354 255.884Z" fill="white"/>
</mask>
<g mask="url(#mask7_976_5336)">
<path d="M171.473 195.785H162.3V203.886H171.473V195.785Z" fill="#E3EEFD"/>
</g>
<mask id="mask8_976_5336" style="mask-type:luminance" maskUnits="userSpaceOnUse" x="49" y="147" width="500" height="197">
<path d="M49.2354 255.884V147.462H117.517V226.092H142.953V191.118H205.485V251.49H258.772V211.449H332.221V161.984H422.587V263.065H460.221V232.308H548.77V343.713H54.3709L49.2354 255.884Z" fill="white"/>
</mask>
<g mask="url(#mask8_976_5336)">
<path d="M157.422 206.714H148.249V214.815H157.422V206.714Z" fill="#E3EEFD"/>
</g>
<mask id="mask9_976_5336" style="mask-type:luminance" maskUnits="userSpaceOnUse" x="49" y="147" width="500" height="197">
<path d="M49.2354 255.884V147.462H117.517V226.092H142.953V191.118H205.485V251.49H258.772V211.449H332.221V161.984H422.587V263.065H460.221V232.308H548.77V343.713H54.3709L49.2354 255.884Z" fill="white"/>
</mask>
<g mask="url(#mask9_976_5336)">
<path d="M171.249 206.714H162.076V214.815H171.249V206.714Z" fill="#E3EEFD"/>
</g>
<mask id="mask10_976_5336" style="mask-type:luminance" maskUnits="userSpaceOnUse" x="49" y="147" width="500" height="197">
<path d="M49.2354 255.884V147.462H117.517V226.092H142.953V191.118H205.485V251.49H258.772V211.449H332.221V161.984H422.587V263.065H460.221V232.308H548.77V343.713H54.3709L49.2354 255.884Z" fill="white"/>
</mask>
<g mask="url(#mask10_976_5336)">
<path d="M157.196 217.642H148.023V225.743H157.196V217.642Z" fill="#E3EEFD"/>
</g>
<mask id="mask11_976_5336" style="mask-type:luminance" maskUnits="userSpaceOnUse" x="49" y="147" width="500" height="197">
<path d="M49.2354 255.884V147.462H117.517V226.092H142.953V191.118H205.485V251.49H258.772V211.449H332.221V161.984H422.587V263.065H460.221V232.308H548.77V343.713H54.3709L49.2354 255.884Z" fill="white"/>
</mask>
<g mask="url(#mask11_976_5336)">
<path d="M171.024 217.642H161.851V225.743H171.024V217.642Z" fill="#E3EEFD"/>
</g>
<mask id="mask12_976_5336" style="mask-type:luminance" maskUnits="userSpaceOnUse" x="49" y="147" width="500" height="197">
<path d="M49.2354 255.884V147.462H117.517V226.092H142.953V191.118H205.485V251.49H258.772V211.449H332.221V161.984H422.587V263.065H460.221V232.308H548.77V343.713H54.3709L49.2354 255.884Z" fill="white"/>
</mask>
<g mask="url(#mask12_976_5336)">
<path d="M274.148 216.48H265.532V289.228H274.148V216.48Z" fill="#E3EEFD"/>
</g>
<mask id="mask13_976_5336" style="mask-type:luminance" maskUnits="userSpaceOnUse" x="49" y="147" width="500" height="197">
<path d="M49.2354 255.884V147.462H117.517V226.092H142.953V191.118H205.485V251.49H258.772V211.449H332.221V161.984H422.587V263.065H460.221V232.308H548.77V343.713H54.3709L49.2354 255.884Z" fill="white"/>
</mask>
<g mask="url(#mask13_976_5336)">
<path d="M286.679 216.48H278.063V273.85H286.679V216.48Z" fill="#E3EEFD"/>
</g>
<mask id="mask14_976_5336" style="mask-type:luminance" maskUnits="userSpaceOnUse" x="49" y="147" width="500" height="197">
<path d="M49.2354 255.884V147.462H117.517V226.092H142.953V191.118H205.485V251.49H258.772V211.449H332.221V161.984H422.587V263.065H460.221V232.308H548.77V343.713H54.3709L49.2354 255.884Z" fill="white"/>
</mask>
<g mask="url(#mask14_976_5336)">
<path d="M353.491 168.121H340.587V181.023H353.491V168.121Z" fill="#E3EEFD"/>
</g>
<mask id="mask15_976_5336" style="mask-type:luminance" maskUnits="userSpaceOnUse" x="49" y="147" width="500" height="197">
<path d="M49.2354 255.884V147.462H117.517V226.092H142.953V191.118H205.485V251.49H258.772V211.449H332.221V161.984H422.587V263.065H460.221V232.308H548.77V343.713H54.3709L49.2354 255.884Z" fill="white"/>
</mask>
<g mask="url(#mask15_976_5336)">
<path d="M373.187 168.121H360.284V181.023H373.187V168.121Z" fill="#E3EEFD"/>
</g>
<mask id="mask16_976_5336" style="mask-type:luminance" maskUnits="userSpaceOnUse" x="49" y="147" width="500" height="197">
<path d="M49.2354 255.884V147.462H117.517V226.092H142.953V191.118H205.485V251.49H258.772V211.449H332.221V161.984H422.587V263.065H460.221V232.308H548.77V343.713H54.3709L49.2354 255.884Z" fill="white"/>
</mask>
<g mask="url(#mask16_976_5336)">
<path d="M392.884 168.121H379.98V181.023H392.884V168.121Z" fill="#E3EEFD"/>
</g>
<mask id="mask17_976_5336" style="mask-type:luminance" maskUnits="userSpaceOnUse" x="49" y="147" width="500" height="197">
<path d="M49.2354 255.884V147.462H117.517V226.092H142.953V191.118H205.485V251.49H258.772V211.449H332.221V161.984H422.587V263.065H460.221V232.308H548.77V343.713H54.3709L49.2354 255.884Z" fill="white"/>
</mask>
<g mask="url(#mask17_976_5336)">
<path d="M412.581 168.121H399.677V181.023H412.581V168.121Z" fill="#E3EEFD"/>
</g>
<mask id="mask18_976_5336" style="mask-type:luminance" maskUnits="userSpaceOnUse" x="49" y="147" width="500" height="197">
<path d="M49.2354 255.884V147.462H117.517V226.092H142.953V191.118H205.485V251.49H258.772V211.449H332.221V161.984H422.587V263.065H460.221V232.308H548.77V343.713H54.3709L49.2354 255.884Z" fill="white"/>
</mask>
<g mask="url(#mask18_976_5336)">
<path d="M353.491 186.188H340.587V199.09H353.491V186.188Z" fill="#E3EEFD"/>
</g>
<mask id="mask19_976_5336" style="mask-type:luminance" maskUnits="userSpaceOnUse" x="49" y="147" width="500" height="197">
<path d="M49.2354 255.884V147.462H117.517V226.092H142.953V191.118H205.485V251.49H258.772V211.449H332.221V161.984H422.587V263.065H460.221V232.308H548.77V343.713H54.3709L49.2354 255.884Z" fill="white"/>
</mask>
<g mask="url(#mask19_976_5336)">
<path d="M373.187 186.188H360.284V199.09H373.187V186.188Z" fill="#E3EEFD"/>
</g>
<mask id="mask20_976_5336" style="mask-type:luminance" maskUnits="userSpaceOnUse" x="49" y="147" width="500" height="197">
<path d="M49.2354 255.884V147.462H117.517V226.092H142.953V191.118H205.485V251.49H258.772V211.449H332.221V161.984H422.587V263.065H460.221V232.308H548.77V343.713H54.3709L49.2354 255.884Z" fill="white"/>
</mask>
<g mask="url(#mask20_976_5336)">
<path d="M392.884 186.188H379.98V199.09H392.884V186.188Z" fill="#E3EEFD"/>
</g>
<mask id="mask21_976_5336" style="mask-type:luminance" maskUnits="userSpaceOnUse" x="49" y="147" width="500" height="197">
<path d="M49.2354 255.884V147.462H117.517V226.092H142.953V191.118H205.485V251.49H258.772V211.449H332.221V161.984H422.587V263.065H460.221V232.308H548.77V343.713H54.3709L49.2354 255.884Z" fill="white"/>
</mask>
<g mask="url(#mask21_976_5336)">
<path d="M412.581 186.188H399.677V199.09H412.581V186.188Z" fill="#E3EEFD"/>
</g>
<mask id="mask22_976_5336" style="mask-type:luminance" maskUnits="userSpaceOnUse" x="49" y="147" width="500" height="197">
<path d="M49.2354 255.884V147.462H117.517V226.092H142.953V191.118H205.485V251.49H258.772V211.449H332.221V161.984H422.587V263.065H460.221V232.308H548.77V343.713H54.3709L49.2354 255.884Z" fill="white"/>
</mask>
<g mask="url(#mask22_976_5336)">
<path d="M353.491 204.256H340.587V217.158H353.491V204.256Z" fill="#E3EEFD"/>
</g>
<mask id="mask23_976_5336" style="mask-type:luminance" maskUnits="userSpaceOnUse" x="49" y="147" width="500" height="197">
<path d="M49.2354 255.884V147.462H117.517V226.092H142.953V191.118H205.485V251.49H258.772V211.449H332.221V161.984H422.587V263.065H460.221V232.308H548.77V343.713H54.3709L49.2354 255.884Z" fill="white"/>
</mask>
<g mask="url(#mask23_976_5336)">
<path d="M373.187 204.256H360.284V217.158H373.187V204.256Z" fill="#E3EEFD"/>
</g>
<mask id="mask24_976_5336" style="mask-type:luminance" maskUnits="userSpaceOnUse" x="49" y="147" width="500" height="197">
<path d="M49.2354 255.884V147.462H117.517V226.092H142.953V191.118H205.485V251.49H258.772V211.449H332.221V161.984H422.587V263.065H460.221V232.308H548.77V343.713H54.3709L49.2354 255.884Z" fill="white"/>
</mask>
<g mask="url(#mask24_976_5336)">
<path d="M392.884 204.256H379.98V217.158H392.884V204.256Z" fill="#E3EEFD"/>
</g>
<mask id="mask25_976_5336" style="mask-type:luminance" maskUnits="userSpaceOnUse" x="49" y="147" width="500" height="197">
<path d="M49.2354 255.884V147.462H117.517V226.092H142.953V191.118H205.485V251.49H258.772V211.449H332.221V161.984H422.587V263.065H460.221V232.308H548.77V343.713H54.3709L49.2354 255.884Z" fill="white"/>
</mask>
<g mask="url(#mask25_976_5336)">
<path d="M412.581 204.256H399.677V217.158H412.581V204.256Z" fill="#E3EEFD"/>
</g>
<mask id="mask26_976_5336" style="mask-type:luminance" maskUnits="userSpaceOnUse" x="49" y="147" width="500" height="197">
<path d="M49.2354 255.884V147.462H117.517V226.092H142.953V191.118H205.485V251.49H258.772V211.449H332.221V161.984H422.587V263.065H460.221V232.308H548.77V343.713H54.3709L49.2354 255.884Z" fill="white"/>
</mask>
<g mask="url(#mask26_976_5336)">
<path d="M530.306 236.8H469.003V245.779H530.306V236.8Z" fill="#E3EEFD"/>
</g>
<mask id="mask27_976_5336" style="mask-type:luminance" maskUnits="userSpaceOnUse" x="49" y="147" width="500" height="197">
<path d="M49.2354 255.884V147.462H117.517V226.092H142.953V191.118H205.485V251.49H258.772V211.449H332.221V161.984H422.587V263.065H460.221V232.308H548.77V343.713H54.3709L49.2354 255.884Z" fill="white"/>
</mask>
<g mask="url(#mask27_976_5336)">
<path d="M530.178 251.864H468.875V260.842H530.178V251.864Z" fill="#E3EEFD"/>
</g>
</g>
<path d="M72.1233 359.496L530.965 361.043L332.221 397.045L12.1948 359.766L72.1233 359.496Z" fill="#E3EEFD"/>
<path d="M55.4806 359.496L456.357 374.558C430.842 395.762 76.8133 360.021 39.5645 359.758L55.4806 359.496Z" fill="white"/>
<path d="M344.942 314.632C344.942 314.632 348.968 292.516 313.789 276.912C313.789 276.912 317.3 306.815 326.58 316.641C326.58 316.641 326.835 304.25 288.015 303.075C288.015 303.075 304.31 332.204 316.548 339.061C316.548 339.061 304.28 332.04 273.051 332.69C273.051 332.69 295.437 356.108 311.245 360.228C311.245 360.228 300.376 354.807 279.557 360.228C279.557 360.228 313.023 373.584 335.977 373.584L344.942 314.632Z" fill="#A7BD37"/>
<mask id="mask28_976_5336" style="mask-type:luminance" maskUnits="userSpaceOnUse" x="273" y="276" width="73" height="98">
<path d="M344.942 314.632C344.942 314.632 348.968 292.516 313.789 276.912C313.789 276.912 317.3 306.815 326.58 316.641C326.58 316.641 326.835 304.25 288.015 303.075C288.015 303.075 304.31 332.204 316.548 339.061C316.548 339.061 304.28 332.04 273.051 332.69C273.051 332.69 295.437 356.108 311.245 360.228C311.245 360.228 300.376 354.807 279.557 360.228C279.557 360.228 313.023 373.584 335.977 373.584L344.942 314.632Z" fill="white"/>
</mask>
<g mask="url(#mask28_976_5336)">
<path d="M338.789 290.188L325.347 352.193C323.286 362.666 314.884 370.041 305.066 373.343L347.432 374.997L350.561 299.592L338.789 290.188Z" fill="#3E5409"/>
</g>
<path d="M439.494 378.412L337.484 378.383C333.487 378.382 330.729 375.184 331.326 371.239L360.018 181.402C360.614 177.458 364.338 174.261 368.335 174.262L470.346 174.291C474.343 174.293 477.1 177.491 476.504 181.436L447.811 371.273C447.215 375.217 443.491 378.414 439.494 378.412Z" fill="#38385C"/>
<path d="M341.616 363.374L439.898 363.402L466.212 189.301L367.93 189.273L341.616 363.374Z" fill="#B9D4FD"/>
<mask id="mask29_976_5336" style="mask-type:luminance" maskUnits="userSpaceOnUse" x="341" y="189" width="126" height="175">
<path d="M341.616 363.374L439.898 363.402L466.212 189.301L367.93 189.273L341.616 363.374Z" fill="white"/>
</mask>
<g mask="url(#mask29_976_5336)">
<path d="M367.93 189.273L456.285 196.126L427.223 364.398L442.693 363.403L469.462 185.913L367.93 189.273Z" fill="#739BFD"/>
</g>
<mask id="mask30_976_5336" style="mask-type:luminance" maskUnits="userSpaceOnUse" x="341" y="189" width="126" height="175">
<path d="M341.616 363.374L439.898 363.402L466.212 189.301L367.93 189.273L341.616 363.374Z" fill="white"/>
</mask>
<g mask="url(#mask30_976_5336)">
<path opacity="0.2" d="M345.687 253.412L449.431 362.891L444.539 395.257L341.616 286.041L345.687 253.412Z" fill="white"/>
</g>
<mask id="mask31_976_5336" style="mask-type:luminance" maskUnits="userSpaceOnUse" x="341" y="189" width="126" height="175">
<path d="M341.616 363.374L439.898 363.402L466.212 189.301L367.93 189.273L341.616 363.374Z" fill="white"/>
</mask>
<g mask="url(#mask31_976_5336)">
<path opacity="0.2" d="M314.974 288.962L418.717 398.442L413.826 430.807L310.903 321.592L314.974 288.962Z" fill="white"/>
</g>
<mask id="mask32_976_5336" style="mask-type:luminance" maskUnits="userSpaceOnUse" x="341" y="189" width="126" height="175">
<path d="M341.616 363.374L439.898 363.402L466.212 189.301L367.93 189.273L341.616 363.374Z" fill="white"/>
</mask>
<g mask="url(#mask32_976_5336)">
<path opacity="0.2" d="M352.907 195.508L456.651 304.987L451.758 337.353L348.836 228.138L352.907 195.508Z" fill="white"/>
</g>
<mask id="mask33_976_5336" style="mask-type:luminance" maskUnits="userSpaceOnUse" x="341" y="189" width="126" height="175">
<path d="M341.616 363.374L439.898 363.402L466.212 189.301L367.93 189.273L341.616 363.374Z" fill="white"/>
</mask>
<g mask="url(#mask33_976_5336)">
<path opacity="0.2" d="M368.881 145.659L472.625 255.138L467.733 287.504L364.81 178.289L368.881 145.659Z" fill="white"/>
</g>
<path d="M409.18 184.236L427.772 184.242C428.666 184.242 429.499 183.527 429.632 182.645C429.765 181.763 429.149 181.048 428.255 181.048L409.663 181.043C408.769 181.043 407.937 181.757 407.803 182.639C407.67 183.521 408.287 184.236 409.18 184.236Z" fill="white"/>
<path d="M379.831 275.978C382.857 262.439 396.289 251.463 409.83 251.463C441.177 253.916 434.815 294.223 394.061 322.005C371.571 301.656 379.831 275.978 379.831 275.978Z" fill="white"/>
<path d="M396.351 273.95C394.349 287.34 412.69 284.341 414.491 273.949C416.493 260.559 398.152 263.559 396.351 273.95Z" fill="#38385C"/>
<path d="M366.839 332.158C365.579 335.742 420.658 335.742 419.394 332.157C420.654 328.574 365.575 328.574 366.839 332.158Z" fill="white"/>
<path d="M117.952 250.509C117.597 173.482 0.489505 173.503 0.149497 250.512C0.149249 250.509 -5.90394 312.194 59.0508 361.076C124.005 312.194 117.952 250.509 117.952 250.509Z" fill="white"/>
<path d="M79.3549 245.636C78.8659 274.272 36.2622 274.268 35.7773 245.635C36.2664 216.999 78.8701 217.004 79.3549 245.636Z" fill="#38385C"/>
<path d="M418.98 173.105C418.149 172.793 418.562 172.33 417.822 170.569C417.739 170.319 417.874 170.05 418.124 169.966C418.375 169.883 418.644 170.018 418.727 170.268C419.171 171.598 419.396 172.354 419.436 172.491L418.98 172.629L419.048 173.1C419.025 173.104 419.003 173.105 418.98 173.105ZM417.334 168.175C416.413 167.754 416.43 166.057 415.898 165.17C415.672 164.595 416.581 164.252 416.791 164.835C416.879 165.641 418.536 167.942 417.334 168.175ZM415.315 162.802C414.376 162.339 414.366 160.731 413.806 159.844C413.564 159.276 414.463 158.907 414.689 159.483C414.791 160.267 416.54 162.565 415.315 162.802ZM413.146 157.494C412.211 157.031 412.153 155.452 411.575 154.578C411.319 154.016 412.208 153.624 412.448 154.195C412.569 154.97 414.391 157.253 413.146 157.494ZM410.846 152.246C409.914 151.785 409.817 150.243 409.218 149.368C408.949 148.812 409.828 148.399 410.082 148.965C410.225 149.744 412.108 151.999 410.846 152.246ZM408.426 147.054C407.496 146.592 407.366 145.089 406.745 144.214C406.463 143.663 407.336 143.232 407.6 143.792C407.764 144.573 409.704 146.8 408.426 147.054ZM405.892 141.919C404.962 141.457 404.794 139.975 404.159 139.116C403.866 138.572 404.727 138.122 405.005 138.675C405.182 139.444 407.187 141.659 405.892 141.919ZM403.247 136.84C402.319 136.379 402.113 134.92 401.465 134.074C401.161 133.537 402.012 133.068 402.302 133.616C402.494 134.413 404.556 136.505 403.247 136.84ZM400.495 131.819C399.569 131.358 399.326 129.924 398.666 129.092C398.351 128.561 399.192 128.075 399.493 128.616C399.699 129.401 401.821 131.478 400.495 131.819ZM50.5407 130.672C50.2696 130.672 50.0509 130.444 50.064 130.173C50.066 130.131 50.1131 129.115 50.286 127.257C50.3351 126.641 51.3021 126.729 51.2356 127.345C50.8695 129.655 51.4221 130.414 50.5407 130.672ZM397.639 126.857C396.714 126.398 396.438 124.989 395.764 124.169C395.628 123.943 395.7 123.65 395.926 123.514C396.899 123.215 397.456 125.528 398.05 126.138C398.241 126.444 397.996 126.866 397.639 126.857ZM51.0632 124.914C50.012 124.684 51.0372 122.386 50.9514 121.521C51.027 120.909 51.9895 121.038 51.8968 121.65C51.5845 122.501 51.9746 124.683 51.0632 124.914ZM394.68 121.957C393.756 121.498 393.446 120.115 392.76 119.308C392.422 118.791 393.243 118.27 393.566 118.798C393.799 119.562 396.038 121.603 394.68 121.957ZM51.839 119.222C50.7649 118.998 51.894 116.67 51.832 115.833C51.9295 115.223 52.886 115.386 52.7722 115.995C52.4352 116.822 52.7382 118.981 51.839 119.222ZM391.62 117.119C390.696 116.662 390.354 115.305 389.655 114.511C389.306 114.001 390.115 113.463 390.45 113.985C390.697 114.737 392.995 116.758 391.62 117.119ZM52.8134 113.569C51.7184 113.347 52.9404 111.008 52.9022 110.184C53.0185 109.577 53.9705 109.772 53.8366 110.376C53.4626 111.223 53.7228 113.269 52.8134 113.569ZM388.46 112.346C387.536 111.891 387.163 110.562 386.451 109.78C386.092 109.277 386.89 108.723 387.235 109.237C387.496 109.979 389.851 111.978 388.46 112.346ZM53.9713 107.955C52.8553 107.734 54.167 105.389 54.1528 104.575C54.288 103.972 55.2338 104.197 55.0803 104.797C54.682 105.637 54.8723 107.646 53.9713 107.955ZM385.201 107.642C384.278 107.188 383.873 105.887 383.148 105.119C382.779 104.624 383.565 104.052 383.921 104.559C384.196 105.29 386.609 107.264 385.201 107.642ZM381.844 103.007C380.92 102.555 380.485 101.282 379.748 100.527C379.368 100.041 380.141 99.4522 380.508 99.9516C380.797 100.672 383.268 102.62 381.844 103.007ZM55.307 102.382C54.1697 102.161 55.5709 99.8165 55.5808 99.0107C55.7348 98.4123 56.6732 98.6675 56.5009 99.2624C56.0773 100.096 56.2008 102.065 55.307 102.382ZM378.389 98.4443C377.465 97.9944 377 96.7517 376.25 96.0102C376.087 95.8036 376.122 95.5038 376.329 95.3403C377.256 94.9217 378.095 97.1393 378.765 97.6755C379.012 97.9738 378.77 98.4562 378.389 98.4443ZM56.8198 96.8573C55.6594 96.6354 57.1549 94.2863 57.1866 93.4964C57.3602 92.9042 58.2897 93.1889 58.098 93.7779C57.6377 94.6238 57.7287 96.4871 56.8198 96.8573ZM374.837 93.957C373.913 93.5093 373.419 92.2969 372.657 91.5695C372.49 91.3664 372.518 91.066 372.721 90.8981C373.639 90.4594 374.526 92.6582 375.207 93.1802C375.464 93.4766 375.223 93.9696 374.837 93.957ZM58.5094 91.385C57.326 91.16 58.9122 88.8259 58.9707 88.0382C59.1639 87.4514 60.0833 87.7671 59.8725 88.3495C59.3849 89.1936 59.4127 91.009 58.5094 91.385ZM371.19 89.547C370.265 89.1024 369.743 87.9209 368.969 87.2074C368.559 86.7459 369.292 86.1095 369.691 86.5837C370.02 87.2689 372.665 89.1289 371.19 89.547ZM60.3794 85.9726C59.1709 85.7435 60.8538 83.4214 60.9374 82.6435C61.1499 82.0634 62.0586 82.4103 61.8279 82.9852C61.3009 83.8438 61.2992 85.5508 60.3794 85.9726ZM367.447 85.2182C366.522 84.7765 365.972 83.6268 365.186 82.9277C365.01 82.7322 365.025 82.4307 365.221 82.2541C366.118 81.7752 367.1 83.9331 367.804 84.4253C368.08 84.7172 367.842 85.2313 367.447 85.2182ZM363.611 80.9724C362.685 80.5342 362.108 79.4165 361.31 78.7325C361.13 78.5408 361.139 78.2392 361.33 78.0584C362.217 77.5602 363.246 79.6947 363.961 80.1719C364.247 80.4606 364.01 80.9861 363.611 80.9724ZM62.4323 80.6282C61.1975 80.3931 62.9811 78.0865 63.09 77.3206C63.3236 76.7487 64.2187 77.1274 63.9679 77.6936C63.4017 78.5614 63.3693 80.1654 62.4323 80.6282ZM359.681 76.813C358.754 76.3785 358.151 75.2935 357.342 74.6246C356.902 74.1916 357.592 73.5074 358.021 73.9545C358.391 74.6016 361.209 76.3572 359.681 76.813ZM64.673 75.3604C63.4104 75.1179 65.2972 72.8338 65.4331 72.0789C65.6871 71.5157 66.5682 71.9271 66.2967 72.4839C65.7032 73.3363 65.6052 74.8979 64.673 75.3604ZM355.659 72.7425C354.731 72.312 354.103 71.2605 353.283 70.6075C353.094 70.4242 353.089 70.1224 353.272 69.933C354.135 69.395 355.259 71.4815 355.995 71.9264C356.301 72.2091 356.068 72.7572 355.659 72.7425ZM67.1046 70.179C65.8148 69.8566 67.8065 67.7091 67.9702 66.9282C68.2457 66.3754 69.1102 66.8198 68.8176 67.3659C68.1978 68.1994 68.0331 69.7174 67.1046 70.179ZM351.547 68.7639C351.148 68.6364 348.4 66.3806 349.107 66.0096C349.958 65.4523 351.129 67.512 351.875 67.9403C352.191 68.2193 351.961 68.779 351.547 68.7639ZM69.7322 65.0947C68.4123 64.7619 70.5156 62.6425 70.7061 61.8804C71.0037 61.3393 71.8496 61.8174 71.5357 62.3516C70.8899 63.1623 70.6577 64.6339 69.7322 65.0947ZM347.345 64.88C346.926 64.7195 344.174 62.6038 344.854 62.1822C345.691 61.6046 346.917 63.6437 347.665 64.0492C347.992 64.3244 347.764 64.8956 347.345 64.88ZM343.056 61.0935C342.623 60.9085 339.858 58.9178 340.514 58.454C341.336 57.8561 342.615 59.8723 343.368 60.2555C343.704 60.5261 343.48 61.1094 343.056 61.0935ZM72.5591 60.1193C71.2088 59.7729 73.4212 57.6979 73.6441 56.9472C73.9641 56.4189 74.7889 56.9313 74.4536 57.4521C73.7778 58.2464 73.4819 59.6613 72.5591 60.1193ZM338.68 57.4072C338.215 57.1855 335.462 55.3352 336.089 54.8273C336.897 54.2115 338.205 56.1813 338.984 56.562C339.331 56.8281 339.109 57.4236 338.68 57.4072ZM75.5892 55.2655C75.2237 55.2754 74.9786 54.8317 75.1907 54.5279C75.8203 53.927 76.4944 51.6655 77.4512 52.0184C77.6687 52.1675 77.724 52.4643 77.575 52.6813C76.8746 53.4471 76.511 54.8097 75.5892 55.2655ZM334.22 53.8241C333.741 53.5875 330.969 51.8359 331.58 51.3054C332.374 50.671 333.728 52.6106 334.514 52.972C334.873 53.2329 334.655 53.8407 334.22 53.8241ZM78.8246 50.5473C77.4063 50.1673 79.8565 48.189 80.1393 47.4798C80.5041 46.9813 81.2811 47.5643 80.9011 48.0534C80.171 48.7976 79.7447 50.0954 78.8246 50.5473ZM329.677 50.3462C329.178 50.0838 326.412 48.4673 326.99 47.89C327.769 47.237 329.17 49.1458 329.963 49.4873C330.332 49.7433 330.117 50.363 329.677 50.3462ZM325.054 46.9758C324.521 46.6805 321.78 45.2096 322.321 44.5836C323.084 43.913 324.521 45.781 325.331 46.1101C325.71 46.3605 325.499 46.9932 325.054 46.9758ZM82.2671 45.9786C81.884 45.9903 81.6417 45.5042 81.8934 45.2063C82.5704 44.6682 83.4488 42.4726 84.3704 42.9106C84.5735 43.079 84.6015 43.3793 84.4336 43.5822C83.677 44.2982 83.1874 45.5317 82.2671 45.9786ZM320.352 43.7159C319.823 43.4195 317.053 42.0377 317.576 41.3886C318.323 40.6997 319.817 42.5433 320.62 42.8437C321.01 43.0884 320.804 43.7335 320.352 43.7159ZM85.9164 41.5744C85.5236 41.587 85.2843 41.0776 85.5568 40.785C86.2626 40.2739 87.2413 38.1272 88.14 38.6098C88.3347 38.7874 88.3486 39.0889 88.171 39.2834C87.3925 39.9634 86.8388 41.1325 85.9164 41.5744ZM315.575 40.568C315.023 40.2478 312.276 39.0068 312.755 38.3075C313.486 37.6004 315.027 39.4108 315.833 39.6898C316.234 39.9279 316.032 40.5859 315.575 40.568ZM310.725 37.5345C310.163 37.2086 307.404 36.0596 307.863 35.3412C308.577 34.6172 310.16 36.3902 310.974 36.6501C311.385 36.8817 311.188 37.5523 310.725 37.5345ZM89.7714 37.3497C88.2417 36.8946 91.0657 35.1276 91.4382 34.4942C91.8704 34.0528 92.5564 34.7403 92.1107 35.1705C91.303 35.8233 90.6942 36.9165 89.7714 37.3497ZM305.804 34.617C305.229 34.2847 302.464 33.2282 302.903 32.4921C303.599 31.7516 305.22 33.4841 306.043 33.7269C306.465 33.9514 306.273 34.6348 305.804 34.617ZM93.8279 33.319C93.4145 33.3336 93.1831 32.7748 93.5003 32.4958C94.248 32.0604 95.4372 30.0163 96.2843 30.585C96.4604 30.7812 96.4445 31.0827 96.2489 31.2586C95.4183 31.8756 94.7534 32.8946 93.8279 33.319ZM300.815 31.8168C300.208 31.4609 297.488 30.5451 297.876 29.7611C298.554 29.0043 300.211 30.6954 301.044 30.9213C301.477 31.1388 301.29 31.8349 300.815 31.8168ZM98.0803 29.4965C97.6555 29.5122 97.4303 28.9271 97.7703 28.6573C98.5374 28.2612 99.8297 26.2795 100.648 26.8903C101.314 27.3206 98.5119 29.3142 98.0803 29.4965ZM295.762 29.1352C294.811 28.8019 293.922 28.2025 292.999 27.7891C292.443 27.5207 292.876 26.6505 293.426 26.9364C293.953 27.359 297.527 28.416 295.762 29.1352ZM290.647 26.5743C290.021 26.2172 287.29 25.4725 287.636 24.6588C288.279 23.8711 290.012 25.4817 290.856 25.6684C291.308 25.8703 291.133 26.5924 290.647 26.5743ZM102.521 25.8953C102.085 25.9117 101.867 25.3001 102.23 25.0407C103.013 24.6871 104.409 22.7708 105.194 23.4235C105.795 23.957 102.998 25.6518 102.521 25.8953ZM285.474 24.1335C284.847 23.7801 282.105 23.1172 282.43 22.2889C283.054 21.4864 284.834 23.0602 285.672 23.2229C286.135 23.4168 285.966 24.1516 285.474 24.1335ZM107.141 22.527C106.692 22.5438 106.482 21.905 106.869 21.658C107.67 21.3445 109.162 19.5031 109.912 20.1955C110.438 20.8284 107.666 22.2291 107.141 22.527ZM280.244 21.8147C279.584 21.4437 276.903 20.9123 277.169 20.0413C277.774 19.2241 279.587 20.7548 280.433 20.8996C280.906 21.0854 280.743 21.8328 280.244 21.8147ZM274.962 19.6179C274.292 19.2499 271.614 18.7981 271.858 17.9157C272.387 17.0797 274.325 18.5756 275.14 18.6984C275.623 18.8754 275.467 19.636 274.962 19.6179ZM111.926 19.4009C111.466 19.4183 111.266 18.7519 111.675 18.5183C112.496 18.2435 114.076 16.4847 114.789 17.2141C115.249 17.9204 112.493 19.0676 111.926 19.4009ZM269.631 17.5432C268.954 17.1796 266.277 16.8041 266.5 15.9123C267.008 15.0642 268.981 16.5162 269.799 16.6199C270.291 16.7878 270.142 17.5608 269.631 17.5432ZM116.866 16.5244C116.393 16.542 116.204 15.8478 116.637 15.6296C117.468 15.3987 119.137 13.7207 119.813 14.4856C120.229 15.2306 117.452 16.1841 116.866 16.5244ZM264.255 15.5907C263.569 15.2323 260.896 14.9312 261.098 14.031C261.587 13.1717 263.592 14.5786 264.413 14.6636C264.914 14.8226 264.772 15.6083 264.255 15.5907ZM121.946 13.9023C121.46 13.9199 121.283 13.1982 121.737 12.9966C122.574 12.8106 124.33 11.2154 124.967 12.013C125.307 12.8222 122.564 13.5437 121.946 13.9023ZM258.835 13.7599C258.143 13.4083 255.475 13.1791 255.655 12.2712C256.124 11.4012 258.16 12.763 258.983 12.8294C259.493 12.9795 259.358 13.7773 258.835 13.7599ZM253.377 12.0507C252.653 11.6891 250.058 11.5755 250.175 10.6324C250.625 9.7525 252.69 11.0686 253.514 11.117C254.033 11.2574 253.906 12.0676 253.377 12.0507ZM127.149 11.5371C126.651 11.5547 126.487 10.8058 126.962 10.6215C127.778 10.4779 129.698 8.96385 130.236 9.79763C130.532 10.6334 127.792 11.18 127.149 11.5371ZM247.881 10.462C246.917 10.244 245.966 9.9375 244.998 9.6967C244.398 9.5469 244.647 8.60748 245.243 8.77513C245.853 9.03776 249.75 9.51863 247.881 10.462ZM132.462 9.42811C131.951 9.44547 131.801 8.66998 132.297 8.50406C133.114 8.40164 135.108 6.97886 135.606 7.83719C135.82 8.72478 133.139 9.06355 132.462 9.42811ZM242.353 8.99337C241.616 8.64914 239.038 8.66675 239.113 7.71468C239.525 6.81592 241.645 8.04179 242.47 8.05419C243.006 8.17521 242.894 9.00949 242.353 8.99337ZM236.794 7.64325C236.052 7.30845 233.483 7.38905 233.538 6.43326C233.93 5.52608 236.077 6.70706 236.901 6.70185C237.445 6.81295 237.342 7.65937 236.794 7.64325ZM137.869 7.57307C137.345 7.58993 137.21 6.78865 137.724 6.64183C138.548 6.57686 140.602 5.24832 141.06 6.12847C141.231 7.03243 138.562 7.22016 137.869 7.57307ZM231.209 6.41094C230.461 6.08631 227.902 6.22667 227.938 5.2684C228.311 4.35353 230.481 5.48937 231.306 5.46705C231.857 5.56873 231.762 6.42632 231.209 6.41094ZM143.354 5.96702C142.818 5.98314 142.699 5.15705 143.231 5.02983C144.053 5.00354 146.169 3.76527 146.586 4.66477C146.672 5.60866 144.084 5.61511 143.354 5.96702ZM225.598 5.29444C224.846 4.98047 222.298 5.17937 222.315 4.21911C222.671 3.29705 224.861 4.38801 225.686 4.34882C226.245 4.44033 226.158 5.30932 225.598 5.29444ZM148.906 4.60376C148.357 4.61914 148.255 3.769 148.802 3.66161C149.629 3.6698 151.79 2.52403 152.17 3.43965C152.216 4.39023 149.65 4.27095 148.906 4.60376ZM219.966 4.29252C219.207 3.99046 216.693 4.24565 216.678 3.28614C216.949 2.35912 219.258 3.39799 220.045 3.34517C220.61 3.42676 220.532 4.3069 219.966 4.29252ZM154.51 3.47536C153.949 3.49 153.864 2.61679 154.426 2.52924C155.249 2.57215 157.456 1.51442 157.8 2.44442C157.807 3.39972 155.262 3.16412 154.51 3.47536ZM214.315 3.40517C213.509 3.09865 211.082 3.45205 211.008 2.46848C211.323 1.53204 213.546 2.52676 214.383 2.45633C214.956 2.52726 214.887 3.41906 214.315 3.40517ZM208.644 2.64456C207.835 2.35415 205.422 2.76757 205.327 1.78648C205.62 0.843091 207.867 1.784 208.701 1.69447C209.282 1.753 209.223 2.65771 208.644 2.64456ZM160.155 2.57339C159.582 2.58703 159.514 1.69199 160.09 1.62454C160.904 1.70092 163.155 0.72777 163.464 1.66992C163.385 2.64928 160.938 2.27256 160.155 2.57339ZM202.956 2.02035C202.146 1.7468 199.75 2.2242 199.631 1.2451C199.899 0.294015 202.175 1.17938 203.002 1.06877C203.591 1.11465 203.543 2.03299 202.956 2.02035ZM165.831 1.88766C165.247 1.90006 165.195 0.98445 165.783 0.936586C166.591 1.04447 168.884 0.152406 169.154 1.10597C169.041 2.08284 166.618 1.61189 165.831 1.88766ZM197.255 1.54047C196.298 1.47599 195.328 1.41002 194.372 1.35645C193.753 1.32867 193.812 0.363955 194.426 0.404379C195.222 0.640723 197.607 0.114963 197.73 1.09704C197.712 1.34852 197.503 1.54047 197.255 1.54047ZM171.53 1.40853C171.281 1.40853 171.071 1.21534 171.055 0.963371C171.178 -0.0177178 173.556 0.518955 174.362 0.290051C174.978 0.243427 175.029 1.22352 174.409 1.24262C173.446 1.28949 172.479 1.34851 171.53 1.40853ZM191.542 1.2136C190.588 1.17343 189.622 1.13722 188.669 1.10994C188.054 1.103 188.073 0.124135 188.697 0.156871C189.498 0.369903 191.868 -0.221324 192.018 0.757284C192.007 1.01347 191.796 1.2136 191.542 1.2136ZM177.243 1.12606C176.987 1.12606 176.776 0.922698 176.767 0.665026C176.923 -0.311103 179.282 0.304433 180.095 0.101569C180.713 0.0799928 180.731 1.05488 180.111 1.05513C179.153 1.07075 178.188 1.09556 177.243 1.12606ZM185.823 1.04843C185.081 0.863672 182.551 1.47623 182.487 0.553922C182.578 -0.388726 185.076 0.255325 185.829 0.094621C186.443 0.094373 186.437 1.0581 185.823 1.04843Z" fill="#38385C"/>
<path d="M492.956 73.7429H387.955C393.85 64.5465 404.029 52.77 416.113 56.9798C423.765 26.2913 468.063 28.5964 472.507 59.8889C481.821 54.2783 493.827 63.6642 492.956 73.7429Z" fill="#E3EEFD"/>
<path d="M375.769 35.9744H301.617C306.227 31.8484 312.541 30.4589 318.619 31.6153C323.746 19.3331 342.249 18.4901 348.474 30.2506C352.246 27.0657 357.28 30.1809 360.337 32.9875C363.98 25.8548 374.066 29.3555 375.769 35.9744Z" fill="#E3EEFD"/>
<path d="M290.759 159.434C288.19 155.71 283.601 153.943 279.197 154.981L203.178 170.239L174.081 191.249L178.255 198.651L180.514 247.683L142.952 274.478L148.962 285.745C212.394 268.925 205.478 283.572 219.444 217.037L276.432 189.673L322.018 242.678L338.559 228.722L290.759 159.434Z" fill="#38385C"/>
<path d="M173.329 204.063C173.329 204.063 182.177 171.853 222.547 166.49C222.547 166.49 188.451 182.562 173.329 204.063Z" fill="#1A1A35"/>
<path d="M180.514 247.683L187.081 185.277L178.052 197.318L180.514 247.683Z" fill="#1A1A35"/>
<path d="M282.223 184.003C277.011 177.151 270.663 180.895 265.3 185.149C253.065 193.692 236.938 194.962 223.577 188.351L219.444 217.037L276.432 189.673L322.018 242.679L282.223 184.003Z" fill="#1A1A35"/>
<path d="M326.588 236.576L332.739 204.358C333.787 198.498 338.535 194.016 344.235 192.639C337.238 187.833 327.659 195.711 326.546 202.998L320.395 235.217C319.082 241.982 324.701 248.182 331.565 247.51C327.927 245.382 325.722 241.113 326.588 236.576Z" fill="#38385C"/>
<path d="M340.359 240.773C344.039 227.467 359.738 204.412 344.64 192.957C344.508 192.845 344.373 192.74 344.236 192.639C338.535 194.017 333.788 198.497 332.74 204.358L326.589 236.577C325.722 241.113 327.927 245.382 331.565 247.51C335.537 247.143 338.967 244.536 340.359 240.773Z" fill="#1A1A35"/>
<path d="M322.018 242.679C322.018 242.679 319.458 240.123 320.395 235.217C321.331 230.311 325.303 209.507 325.303 209.507L311.658 230.632L322.018 242.679Z" fill="#1A1A35"/>
<path d="M140.738 276.354C136.49 276.735 130.752 282.942 130.752 282.942L130.753 282.943C126.419 286.72 119.461 298.369 121.659 304.944C122.088 307.375 124.39 309.016 126.833 308.651C137.207 306.52 141.293 292.578 144.601 285.54C145.506 283.012 144.06 275.955 140.738 276.354Z" fill="#38385C"/>
<mask id="mask34_976_5336" style="mask-type:luminance" maskUnits="userSpaceOnUse" x="121" y="276" width="24" height="33">
<path d="M140.738 276.354C136.49 276.735 130.752 282.942 130.752 282.942L130.753 282.943C126.419 286.72 119.461 298.369 121.659 304.944C122.088 307.375 124.39 309.016 126.833 308.651C137.207 306.52 141.293 292.578 144.601 285.54C145.506 283.012 144.06 275.955 140.738 276.354Z" fill="white"/>
</mask>
<g mask="url(#mask34_976_5336)">
<path d="M120.366 302.794C120.713 302.794 127.209 304.005 129.738 302.657C132.266 301.309 143.645 283.949 143.645 283.949L145.921 285.129C142.748 297.842 140.396 311.742 121.369 310.073L120.366 302.794Z" fill="#1A1A35"/>
</g>
<path d="M143.342 275.208L138.669 278.226C131.421 283.188 138.815 295.773 144.914 284.934L148.058 284.05L143.342 275.208Z" fill="#FFB6A6"/>
<path d="M149.574 78.6099L134.154 85.8614L150.489 119.461L161.955 111.836L158.449 104.056C161.958 101.723 166.949 98.9632 163.33 94.1962C163.331 94.1964 149.574 78.6099 149.574 78.6099Z" fill="#FFB6A6"/>
<mask id="mask35_976_5336" style="mask-type:luminance" maskUnits="userSpaceOnUse" x="134" y="78" width="31" height="42">
<path d="M149.574 78.6099L134.154 85.8614L150.489 119.461L161.955 111.836L158.449 104.056C161.958 101.723 166.949 98.9632 163.33 94.1962C163.331 94.1964 149.574 78.6099 149.574 78.6099Z" fill="white"/>
</mask>
<g mask="url(#mask35_976_5336)">
<path d="M139.926 87.7039C139.926 87.7039 146.683 91.5528 158.329 87.5171L152.292 80.4323L139.926 87.7039Z" fill="#FF8370"/>
</g>
<mask id="mask36_976_5336" style="mask-type:luminance" maskUnits="userSpaceOnUse" x="134" y="78" width="31" height="42">
<path d="M149.574 78.6099L134.154 85.8614L150.489 119.461L161.955 111.836L158.449 104.056C161.958 101.723 166.949 98.9632 163.33 94.1962C163.331 94.1964 149.574 78.6099 149.574 78.6099Z" fill="white"/>
</mask>
<g mask="url(#mask36_976_5336)">
<path d="M160.105 94.1868C160.105 94.1868 153.641 95.3963 151.683 95.9478C149.724 96.4994 158.9 96.9406 160.105 94.1868Z" fill="white"/>
</g>
<mask id="mask37_976_5336" style="mask-type:luminance" maskUnits="userSpaceOnUse" x="134" y="78" width="31" height="42">
<path d="M149.574 78.6099L134.154 85.8614L150.489 119.461L161.955 111.836L158.449 104.056C161.958 101.723 166.949 98.9632 163.33 94.1962C163.331 94.1964 149.574 78.6099 149.574 78.6099Z" fill="white"/>
</mask>
<g mask="url(#mask37_976_5336)">
<path d="M157.715 110.579L146.617 102.49C146.617 102.49 155.555 101.559 159.004 101.416C162.452 101.272 164.522 95.2592 164.522 95.2592C169.071 98.7302 160.53 103.408 159.433 104.279L161.389 109.506L157.715 110.579Z" fill="#FF8370"/>
</g>
<path d="M139.926 87.7041C139.926 87.7041 146.641 87.0136 153.395 84.9679L146.269 84.6509C146.269 84.6509 156.5 84.1874 161.389 80.5438C161.389 80.5438 151.174 71.0283 140.782 76.1884C130.39 81.3486 131.578 85.4334 131.578 85.4334C123.765 92.2497 140.969 103.922 143.261 104.596C145.92 99.9029 146.73 98.6739 143.423 93.7344C139.47 97.0564 134.93 88.0344 141.776 90.2433L139.926 87.7041Z" fill="#38385C"/>
<path d="M133.904 97.8136C133.904 97.8136 134.7 90.8094 143.112 79.7285L152.334 73.241C155.243 71.1767 155.294 67.3838 153.809 64.4251C153.569 63.7682 152.768 63.5214 152.199 63.9289L143.269 70.329C126.327 69.7224 119.853 88.3735 133.904 97.8136Z" fill="#FF7C62"/>
<mask id="mask38_976_5336" style="mask-type:luminance" maskUnits="userSpaceOnUse" x="126" y="63" width="29" height="35">
<path d="M133.904 97.8136C133.904 97.8136 134.7 90.8094 143.112 79.7285L152.334 73.241C155.243 71.1767 155.294 67.3838 153.809 64.4251C153.569 63.7682 152.768 63.5214 152.199 63.9289L143.269 70.329C126.327 69.7224 119.853 88.3735 133.904 97.8136Z" fill="white"/>
</mask>
<g mask="url(#mask38_976_5336)">
<path d="M143.269 70.3287C143.269 70.3287 146.668 74.5588 143.112 79.7279C143.112 79.7279 142.82 70.874 138.582 70.4904C138.582 70.4904 141.701 69.9324 143.269 70.3287Z" fill="#F4573D"/>
</g>
<path d="M129.556 78.5092C128.085 80.9104 126.379 79.8477 127.887 77.4693C129.358 75.0684 131.064 76.1309 129.556 78.5092Z" fill="#F4573D"/>
<path d="M145.871 117.085C170.378 80.933 217.574 162.146 222.547 166.49C222.547 166.49 186.308 170.482 173.328 204.063L155.323 157.955C155.323 157.955 142.952 127.174 145.871 117.085Z" fill="#FF7C62"/>
<path d="M145.871 117.085L144.57 112.976C144.57 112.976 151.049 105.203 162.432 105.111L163.6 107.596C163.6 107.596 148.468 111.662 145.871 117.085Z" fill="#38385C"/>
<path d="M145.871 117.084L129.734 140.425C127.636 143.46 128.246 147.601 131.131 149.902L141.194 157.929C144.996 160.961 150.546 160.292 153.517 156.442L168.458 137.081L145.871 117.084Z" fill="#F4573D"/>
<mask id="mask39_976_5336" style="mask-type:luminance" maskUnits="userSpaceOnUse" x="128" y="117" width="41" height="43">
<path d="M145.871 117.084L129.734 140.425C127.636 143.46 128.246 147.601 131.131 149.902L141.194 157.929C144.996 160.961 150.546 160.292 153.517 156.442L168.458 137.081L145.871 117.084Z" fill="white"/>
</mask>
<g mask="url(#mask39_976_5336)">
<path d="M127.845 141.503C133.31 133.299 158.914 146.601 160.732 147.842L147.237 161.984C147.237 161.984 134.003 162.216 131.321 159.829C128.64 157.442 126.618 145.63 127.845 141.503Z" fill="#F4573D"/>
</g>
<path d="M154.491 155.816L168.458 137.082C168.458 137.082 167.428 179.532 179.283 192.642C179.283 192.642 174.776 200.189 173.328 204.063L154.491 155.816Z" fill="#F4573D"/>
<path d="M273.534 155.458L205.485 161.984L165.355 155.458V81.4312L205.485 73.7437L273.534 81.4312V155.458Z" fill="#EECD76"/>
<mask id="mask40_976_5336" style="mask-type:luminance" maskUnits="userSpaceOnUse" x="165" y="73" width="109" height="89">
<path d="M273.534 155.458L205.485 161.984L165.355 155.458V81.4312L205.485 73.7437L273.534 81.4312V155.458Z" fill="white"/>
</mask>
<g mask="url(#mask40_976_5336)">
<path d="M235.506 77.1351L234.981 125.778L245.514 124.494L246.028 78.6102L235.506 77.1351Z" fill="white"/>
</g>
<path d="M205.485 161.984L165.355 155.458V81.4312L205.485 73.7437V161.984Z" fill="#EDA26A"/>
<path d="M217.952 149.485C216.551 149.025 205.693 153.425 202.007 149.712C210.491 138.927 202.111 144.068 196.29 149.252L140.765 141.088C136.554 140.469 132.381 142.422 130.158 146.049C125.058 154.081 133.034 163.774 141.676 163.424C141.676 163.424 191.037 160.28 191.037 160.28L191.026 160.304C191.026 160.304 207.611 163.64 211.457 162.433C215.304 161.226 218.734 150.223 217.952 149.485Z" fill="#FFB6A6"/>
<mask id="mask41_976_5336" style="mask-type:luminance" maskUnits="userSpaceOnUse" x="128" y="140" width="91" height="24">
<path d="M217.952 149.485C216.551 149.025 205.693 153.425 202.007 149.712C210.491 138.927 202.111 144.068 196.29 149.252L140.765 141.088C136.554 140.469 132.381 142.422 130.158 146.049C125.058 154.081 133.034 163.774 141.676 163.424C141.676 163.424 191.037 160.28 191.037 160.28L191.026 160.304C191.026 160.304 207.611 163.64 211.457 162.433C215.304 161.226 218.734 150.223 217.952 149.485Z" fill="white"/>
</mask>
<g mask="url(#mask41_976_5336)">
<path d="M128.808 146.505C128.808 146.505 134.716 156.173 146.735 157.145C158.754 158.117 191.036 160.281 191.036 160.281C185.243 159.789 130.415 175.55 125.967 158.383C125.967 154.582 128.808 146.505 128.808 146.505Z" fill="#FF8370"/>
</g>
<path d="M236.105 6.18162C235.237 6.23618 232.69 5.19706 232.393 6.12458C232.407 7.08186 235.183 6.8289 236.018 7.12898C236.353 7.13642 236.532 6.88842 236.532 6.6429C236.532 6.42962 236.395 6.21882 236.105 6.18162Z" fill="#38385C"/>
<path d="M242.329 7.18649C241.419 7.22617 239.004 6.13497 238.609 7.05754C238.592 8.0173 241.402 7.81889 242.233 8.13137C242.85 8.14625 242.944 7.27825 242.329 7.18649Z" fill="#38385C"/>
<path d="M248.53 8.30538C247.62 8.3277 245.227 7.19186 244.815 8.10698C244.775 9.06426 247.597 8.92538 248.421 9.25026C249.033 9.26514 249.138 8.40706 248.53 8.30538Z" fill="#38385C"/>
<path d="M254.702 9.54023C253.792 9.54519 251.424 8.36471 250.992 9.27239C250.93 10.2272 253.765 10.1478 254.583 10.4826C255.188 10.4975 255.302 9.65183 254.702 9.54023Z" fill="#38385C"/>
<path d="M260.845 10.8915C259.935 10.8791 257.596 9.65397 257.142 10.5517C257.058 11.504 259.903 11.4867 260.716 11.8314C261.314 11.8463 261.435 11.013 260.845 10.8915Z" fill="#38385C"/>
<path d="M263.906 11.6134C263.249 11.4448 262.973 12.3847 263.636 12.536C264.702 12.7766 265.751 13.0816 266.815 13.2998C268.876 12.3574 264.578 11.8763 263.906 11.6134Z" fill="#38385C"/>
<path d="M273.03 13.9545C272.12 13.9074 269.843 12.5905 269.347 13.4709C269.218 14.4133 272.08 14.5274 272.879 14.8895C273.461 14.9044 273.603 14.0959 273.03 13.9545Z" fill="#38385C"/>
<path d="M279.064 15.6676C278.156 15.6007 275.909 14.2392 275.394 15.1096C275.193 16.0173 278.136 16.2455 278.9 16.5976C279.478 16.615 279.627 15.8164 279.064 15.6676Z" fill="#38385C"/>
<path d="M285.053 17.5006C284.148 17.4163 281.935 16.0101 281.397 16.8682C281.174 17.7684 284.123 18.071 284.879 18.4281C285.45 18.4455 285.606 17.6593 285.053 17.5006Z" fill="#38385C"/>
<path d="M290.995 19.457C290.092 19.3529 287.917 17.9021 287.357 18.7502C287.111 19.6406 290.062 20.0175 290.811 20.3796C291.374 20.397 291.538 19.6257 290.995 19.457Z" fill="#38385C"/>
<path d="M296.887 21.5353C295.99 21.4138 293.849 19.9183 293.267 20.7541C292.999 21.6345 295.952 22.0883 296.692 22.4554C297.25 22.4727 297.421 21.7139 296.887 21.5353Z" fill="#38385C"/>
<path d="M302.728 23.7377C301.793 23.5913 299.794 22.0612 299.127 22.8796C298.831 23.7501 301.79 24.2808 302.519 24.6528C303.07 24.6701 303.248 23.9237 302.728 23.7377Z" fill="#38385C"/>
<path d="M308.506 26.0614C307.581 25.8977 305.62 24.3229 304.93 25.1264C304.573 25.9548 307.596 26.6169 308.288 26.9716C308.831 26.9889 309.017 26.2549 308.506 26.0614Z" fill="#38385C"/>
<path d="M314.225 28.5067C313.295 28.3182 311.383 26.7087 310.674 27.4974C310.292 28.3108 313.305 29.0548 313.997 29.4119C314.533 29.4293 314.726 28.7076 314.225 28.5067Z" fill="#38385C"/>
<path d="M317.062 29.774C316.455 29.4888 315.976 30.3592 316.591 30.6271C317.608 31.0388 318.59 31.6389 319.639 31.9737C321.586 31.2545 317.642 30.1956 317.062 29.774Z" fill="#38385C"/>
<path d="M325.467 33.7598C324.547 33.5341 322.719 31.8427 321.97 32.5991C321.543 33.3828 324.544 34.2979 325.214 34.655C325.737 34.6724 325.943 33.9755 325.467 33.7598Z" fill="#38385C"/>
<path d="M330.98 36.5643C330.072 36.3212 328.284 34.5902 327.515 35.3293C327.032 36.0658 330.082 37.1223 330.717 37.4546C331.235 37.472 331.446 36.79 330.98 36.5643Z" fill="#38385C"/>
<path d="M336.421 39.4888C335.524 39.2284 333.778 37.4552 332.989 38.1794C332.483 38.8986 335.526 40.0468 336.146 40.3717C336.657 40.3915 336.875 39.7195 336.421 39.4888Z" fill="#38385C"/>
<path d="M341.783 42.5268C340.893 42.2491 339.191 40.4387 338.385 41.1455C337.857 41.8448 340.888 43.0848 341.498 43.4072C342.001 43.4246 342.224 42.7649 341.783 42.5268Z" fill="#38385C"/>
<path d="M347.063 45.6808C346.177 45.3807 344.528 43.538 343.705 44.2275C343.127 44.8748 346.185 46.2561 346.767 46.5537C347.266 46.5711 347.494 45.9263 347.063 45.6808Z" fill="#38385C"/>
<path d="M352.258 48.9467C351.366 48.6193 349.781 46.7494 348.94 47.4215C348.342 48.0465 351.366 49.5171 351.953 49.8122C352.447 49.8296 352.677 49.1972 352.258 48.9467Z" fill="#38385C"/>
<path d="M357.37 52.3248C356.497 51.9825 354.949 50.0754 354.091 50.7276C353.451 51.3055 356.504 52.92 357.055 53.1828C357.541 53.2002 357.776 52.5802 357.37 52.3248Z" fill="#38385C"/>
<path d="M362.392 55.8089C361.524 55.4468 360.031 53.5074 359.155 54.1423C358.481 54.673 361.539 56.4239 362.067 56.662C362.545 56.6769 362.786 56.0693 362.392 55.8089Z" fill="#38385C"/>
<path d="M367.322 59.4005C366.461 59.0185 365.02 57.0494 364.127 57.6645C363.435 58.1729 366.473 60.023 366.987 60.2462C367.46 60.261 367.706 59.6658 367.322 59.4005Z" fill="#38385C"/>
<path d="M372.158 63.0933C371.33 62.7114 369.919 60.6926 369.011 61.2928C368.287 61.7566 371.337 63.7455 371.813 63.9315C372.282 63.9464 372.53 63.3636 372.158 63.0933Z" fill="#38385C"/>
<path d="M376.9 66.8868C376.074 66.4801 374.722 64.4415 373.8 65.0194C373.048 65.441 376.084 67.5564 376.547 67.7176C377.009 67.7325 377.259 67.1621 376.9 66.8868Z" fill="#38385C"/>
<path d="M381.545 70.7783C380.722 70.3493 379.43 68.2909 378.49 68.8464C377.711 69.2184 380.741 71.4727 381.183 71.6017C381.639 71.6166 381.892 71.0561 381.545 70.7783Z" fill="#38385C"/>
<path d="M386.088 74.764C385.277 74.3201 384.037 72.232 383.085 72.7701C382.884 72.9611 382.889 73.2612 383.097 73.4447C384.002 74.0994 384.694 75.1509 385.719 75.58C386.17 75.5948 386.428 75.0468 386.088 74.764Z" fill="#38385C"/>
<path d="M388.325 76.7927C387.851 76.3463 387.09 77.0283 387.576 77.4623C388.469 78.1319 389.134 79.2156 390.155 79.6496C391.842 79.1958 388.732 77.4399 388.325 76.7927Z" fill="#38385C"/>
<path d="M394.877 83.0097C394.088 82.5311 392.952 80.3983 391.975 80.8967C391.765 81.0778 391.755 81.3779 391.953 81.5688C392.833 82.2533 393.468 83.3718 394.49 83.8107C394.932 83.8231 395.192 83.2974 394.877 83.0097Z" fill="#38385C"/>
<path d="M399.118 87.2633C398.342 86.7698 397.258 84.6121 396.269 85.0908C396.053 85.2693 396.036 85.5694 396.229 85.7653C397.097 86.4647 397.702 87.6154 398.724 88.0569C399.16 88.0693 399.423 87.5559 399.118 87.2633Z" fill="#38385C"/>
<path d="M401.198 89.4205C400.759 88.9468 399.948 89.5841 400.402 90.0454C401.255 90.7597 401.833 91.9401 402.853 92.3841C404.479 91.9674 401.563 90.1074 401.198 89.4205Z" fill="#38385C"/>
<path d="M407.285 96.0174C406.534 95.4966 405.554 93.2968 404.542 93.7358C404.319 93.9044 404.287 94.2045 404.473 94.4079C405.313 95.1345 405.856 96.3472 406.876 96.7936C407.302 96.806 407.568 96.315 407.285 96.0174Z" fill="#38385C"/>
<path d="M411.211 100.514C410.471 99.9783 409.544 97.7587 408.522 98.1778C408.294 98.3415 408.257 98.6416 408.435 98.8474C409.264 99.5889 409.775 100.831 410.794 101.283C411.215 101.295 411.483 100.812 411.211 100.514Z" fill="#38385C"/>
<path d="M413.133 102.79C412.729 102.289 411.875 102.88 412.295 103.366C413.108 104.12 413.587 105.392 414.606 105.846C416.178 105.459 413.453 103.509 413.133 102.79Z" fill="#38385C"/>
<path d="M416.897 107.396C416.505 106.89 415.637 107.46 416.047 107.956C416.845 108.725 417.292 110.025 418.311 110.478C419.863 110.102 417.2 108.127 416.897 107.396Z" fill="#38385C"/>
<path d="M420.552 112.075C420.173 111.559 419.293 112.115 419.689 112.618C420.473 113.399 420.887 114.729 421.907 115.183C423.439 114.816 420.843 112.817 420.552 112.075Z" fill="#38385C"/>
<path d="M424.101 116.822C423.732 116.302 422.839 116.84 423.224 117.348C423.995 118.144 424.372 119.501 425.391 119.957C426.909 119.595 424.374 117.576 424.101 116.822Z" fill="#38385C"/>
<path d="M427.539 121.636C427.182 121.108 426.277 121.629 426.649 122.147C427.407 122.953 427.747 124.337 428.769 124.796C430.267 124.441 427.797 122.4 427.539 121.636Z" fill="#38385C"/>
<path d="M432.484 128.977C431.829 128.367 431.214 126.053 430.143 126.353C429.892 126.487 429.813 126.782 429.964 127.008C430.706 127.826 431.011 129.235 432.033 129.696C432.427 129.703 432.697 129.282 432.484 128.977Z" fill="#38385C"/>
<path d="M434.079 131.455C433.747 130.912 432.817 131.4 433.166 131.931C433.893 132.762 434.161 134.198 435.183 134.657C436.646 134.317 434.305 132.239 434.079 131.455Z" fill="#38385C"/>
<path d="M437.176 136.454C436.856 135.906 435.919 136.375 436.254 136.913C436.968 137.758 437.196 139.217 438.218 139.678C439.664 139.343 437.39 137.25 437.176 136.454Z" fill="#38385C"/>
<path d="M440.16 141.513C439.852 140.96 438.902 141.409 439.225 141.952C439.924 142.813 440.112 144.296 441.137 144.757C442.565 144.497 440.353 142.282 440.16 141.513Z" fill="#38385C"/>
<path d="M443.021 146.629C442.729 146.069 441.766 146.5 442.076 147.051C442.763 147.926 442.905 149.429 443.931 149.891C445.343 149.638 443.202 147.411 443.021 146.629Z" fill="#38385C"/>
<path d="M445.759 151.803C445.479 151.237 444.509 151.649 444.807 152.207C445.467 153.08 445.573 154.623 446.603 155.084C447.994 154.836 445.918 152.581 445.759 151.803Z" fill="#38385C"/>
<path d="M448.371 157.033C448.105 156.46 447.123 156.854 447.406 157.415C448.043 158.29 448.108 159.87 449.14 160.331C450.514 160.091 448.502 157.807 448.371 157.033Z" fill="#38385C"/>
<path d="M450.841 162.321C450.593 161.745 449.601 162.112 449.866 162.683C450.486 163.568 450.496 165.178 451.533 165.639C452.885 165.403 450.955 163.104 450.841 162.321Z" fill="#38385C"/>
<path d="M453.159 167.672C452.929 167.089 451.927 167.434 452.175 168.009C452.763 168.895 452.743 170.591 453.76 171.013C455.086 170.779 453.259 168.478 453.159 167.672Z" fill="#38385C"/>
<path d="M456.079 175.328C456.034 175.192 455.786 174.435 455.298 173.106C455.206 172.855 454.908 172.721 454.63 172.803C454.355 172.888 454.206 173.158 454.298 173.406C455.114 175.167 454.66 175.631 455.575 175.943C455.6 175.943 455.625 175.941 455.652 175.938L455.575 175.467L456.079 175.328Z" fill="#38385C"/>
<path d="M236.532 6.6429C236.532 6.88842 236.353 7.13642 236.018 7.12898C235.183 6.8289 232.407 7.08186 232.393 6.12458C232.69 5.19706 235.237 6.23618 236.105 6.18162C236.395 6.21882 236.532 6.42962 236.532 6.6429Z" fill="#38385C"/>
</svg>
